<mxfile host="app.diagrams.net" agent="Mozilla/5.0 (Windows NT 10.0; Win64; x64; rv:134.0) Gecko/20100101 Firefox/134.0" version="26.0.5">
  <diagram name="Page-1" id="EWzuyKftOrHQ166xyoJ7">
    <mxGraphModel dx="1050" dy="530" grid="1" gridSize="10" guides="1" tooltips="1" connect="1" arrows="1" fold="1" page="1" pageScale="1" pageWidth="850" pageHeight="1100" math="0" shadow="0">
      <root>
        <mxCell id="0" />
        <mxCell id="1" parent="0" />
        <mxCell id="LJ4RP3-PK-zejF273FP6-8" style="edgeStyle=orthogonalEdgeStyle;rounded=0;orthogonalLoop=1;jettySize=auto;html=1;" edge="1" parent="1" source="FLdNGBb2ecAPK7c12yjc-2" target="LJ4RP3-PK-zejF273FP6-4">
          <mxGeometry relative="1" as="geometry" />
        </mxCell>
        <mxCell id="FLdNGBb2ecAPK7c12yjc-2" value="Actor" style="shape=umlActor;verticalLabelPosition=bottom;verticalAlign=top;html=1;" parent="1" vertex="1">
          <mxGeometry x="10" y="220" width="30" height="60" as="geometry" />
        </mxCell>
        <mxCell id="LJ4RP3-PK-zejF273FP6-3" value="" style="ellipse;whiteSpace=wrap;html=1;align=center;aspect=fixed;fillColor=none;strokeColor=none;resizable=0;perimeter=centerPerimeter;rotatable=0;allowArrows=0;points=[];outlineConnect=1;" vertex="1" parent="1">
          <mxGeometry x="415" y="280" width="10" height="10" as="geometry" />
        </mxCell>
        <mxCell id="LJ4RP3-PK-zejF273FP6-4" value="Browser" style="verticalAlign=top;align=left;spacingTop=8;spacingLeft=2;spacingRight=12;shape=cube;size=10;direction=south;fontStyle=4;html=1;whiteSpace=wrap;" vertex="1" parent="1">
          <mxGeometry x="90" y="215" width="90" height="70" as="geometry" />
        </mxCell>
        <mxCell id="LJ4RP3-PK-zejF273FP6-10" value="&lt;div&gt;React Container Microfrontend&lt;/div&gt;" style="verticalAlign=top;align=left;spacingTop=8;spacingLeft=2;spacingRight=12;shape=cube;size=10;direction=south;fontStyle=4;html=1;whiteSpace=wrap;" vertex="1" parent="1">
          <mxGeometry x="270" y="120" width="130" height="70" as="geometry" />
        </mxCell>
        <mxCell id="LJ4RP3-PK-zejF273FP6-12" value="React Users Microfrontend" style="verticalAlign=top;align=left;spacingTop=8;spacingLeft=2;spacingRight=12;shape=cube;size=10;direction=south;fontStyle=4;html=1;whiteSpace=wrap;" vertex="1" parent="1">
          <mxGeometry x="270" y="320" width="130" height="70" as="geometry" />
        </mxCell>
        <mxCell id="LJ4RP3-PK-zejF273FP6-13" value="" style="rounded=0;orthogonalLoop=1;jettySize=auto;html=1;endArrow=halfCircle;endFill=0;endSize=6;strokeWidth=1;sketch=0;exitX=0;exitY=0;exitDx=30;exitDy=0;exitPerimeter=0;" edge="1" parent="1" source="LJ4RP3-PK-zejF273FP6-4">
          <mxGeometry relative="1" as="geometry">
            <mxPoint x="220" y="250" as="sourcePoint" />
            <mxPoint x="220" y="170" as="targetPoint" />
          </mxGeometry>
        </mxCell>
        <mxCell id="LJ4RP3-PK-zejF273FP6-14" value="" style="rounded=0;orthogonalLoop=1;jettySize=auto;html=1;endArrow=oval;endFill=0;sketch=0;sourcePerimeterSpacing=0;targetPerimeterSpacing=0;endSize=10;exitX=0;exitY=0;exitDx=40;exitDy=130;exitPerimeter=0;" edge="1" parent="1" source="LJ4RP3-PK-zejF273FP6-10">
          <mxGeometry relative="1" as="geometry">
            <mxPoint x="180" y="250" as="sourcePoint" />
            <mxPoint x="220" y="170" as="targetPoint" />
          </mxGeometry>
        </mxCell>
        <mxCell id="LJ4RP3-PK-zejF273FP6-15" value="" style="ellipse;whiteSpace=wrap;html=1;align=center;aspect=fixed;fillColor=none;strokeColor=none;resizable=0;perimeter=centerPerimeter;rotatable=0;allowArrows=0;points=[];outlineConnect=1;" vertex="1" parent="1">
          <mxGeometry x="195" y="245" width="10" height="10" as="geometry" />
        </mxCell>
        <mxCell id="LJ4RP3-PK-zejF273FP6-16" value="" style="rounded=0;orthogonalLoop=1;jettySize=auto;html=1;endArrow=halfCircle;endFill=0;endSize=6;strokeWidth=1;sketch=0;exitX=0.543;exitY=0.022;exitDx=0;exitDy=0;exitPerimeter=0;" edge="1" parent="1" source="LJ4RP3-PK-zejF273FP6-4">
          <mxGeometry relative="1" as="geometry">
            <mxPoint x="220" y="250" as="sourcePoint" />
            <mxPoint x="210" y="340" as="targetPoint" />
          </mxGeometry>
        </mxCell>
        <mxCell id="LJ4RP3-PK-zejF273FP6-17" value="" style="rounded=0;orthogonalLoop=1;jettySize=auto;html=1;endArrow=oval;endFill=0;sketch=0;sourcePerimeterSpacing=0;targetPerimeterSpacing=0;endSize=10;exitX=0;exitY=0;exitDx=40;exitDy=130;exitPerimeter=0;" edge="1" parent="1" source="LJ4RP3-PK-zejF273FP6-12">
          <mxGeometry relative="1" as="geometry">
            <mxPoint x="180" y="250" as="sourcePoint" />
            <mxPoint x="210" y="340" as="targetPoint" />
          </mxGeometry>
        </mxCell>
        <mxCell id="LJ4RP3-PK-zejF273FP6-18" value="" style="ellipse;whiteSpace=wrap;html=1;align=center;aspect=fixed;fillColor=none;strokeColor=none;resizable=0;perimeter=centerPerimeter;rotatable=0;allowArrows=0;points=[];outlineConnect=1;" vertex="1" parent="1">
          <mxGeometry x="195" y="245" width="10" height="10" as="geometry" />
        </mxCell>
        <mxCell id="LJ4RP3-PK-zejF273FP6-20" value="&lt;div&gt;nginx Gateway&lt;br&gt;&lt;/div&gt;" style="verticalAlign=top;align=left;spacingTop=8;spacingLeft=2;spacingRight=12;shape=cube;size=10;direction=south;fontStyle=4;html=1;whiteSpace=wrap;" vertex="1" parent="1">
          <mxGeometry x="445" y="210" width="130" height="70" as="geometry" />
        </mxCell>
        <mxCell id="LJ4RP3-PK-zejF273FP6-21" value="" style="rounded=0;orthogonalLoop=1;jettySize=auto;html=1;endArrow=halfCircle;endFill=0;endSize=6;strokeWidth=1;sketch=0;exitX=0.543;exitY=-0.015;exitDx=0;exitDy=0;exitPerimeter=0;entryX=1;entryY=1.1;entryDx=0;entryDy=0;entryPerimeter=0;" edge="1" target="LJ4RP3-PK-zejF273FP6-23" parent="1" source="LJ4RP3-PK-zejF273FP6-10">
          <mxGeometry relative="1" as="geometry">
            <mxPoint x="440" y="155" as="sourcePoint" />
            <mxPoint x="420" y="210" as="targetPoint" />
          </mxGeometry>
        </mxCell>
        <mxCell id="LJ4RP3-PK-zejF273FP6-22" value="" style="rounded=0;orthogonalLoop=1;jettySize=auto;html=1;endArrow=oval;endFill=0;sketch=0;sourcePerimeterSpacing=0;targetPerimeterSpacing=0;endSize=10;exitX=0;exitY=0;exitDx=40;exitDy=130;exitPerimeter=0;" edge="1" target="LJ4RP3-PK-zejF273FP6-23" parent="1" source="LJ4RP3-PK-zejF273FP6-20">
          <mxGeometry relative="1" as="geometry">
            <mxPoint x="390" y="240" as="sourcePoint" />
          </mxGeometry>
        </mxCell>
        <mxCell id="LJ4RP3-PK-zejF273FP6-23" value="" style="ellipse;whiteSpace=wrap;html=1;align=center;aspect=fixed;fillColor=none;strokeColor=none;resizable=0;perimeter=centerPerimeter;rotatable=0;allowArrows=0;points=[];outlineConnect=1;" vertex="1" parent="1">
          <mxGeometry x="420" y="195" width="10" height="10" as="geometry" />
        </mxCell>
        <mxCell id="LJ4RP3-PK-zejF273FP6-24" value="" style="rounded=0;orthogonalLoop=1;jettySize=auto;html=1;endArrow=halfCircle;endFill=0;endSize=6;strokeWidth=1;sketch=0;exitX=0;exitY=0;exitDx=30;exitDy=0;exitPerimeter=0;" edge="1" parent="1" source="LJ4RP3-PK-zejF273FP6-12">
          <mxGeometry relative="1" as="geometry">
            <mxPoint x="440" y="355" as="sourcePoint" />
            <mxPoint x="430" y="300" as="targetPoint" />
          </mxGeometry>
        </mxCell>
        <mxCell id="LJ4RP3-PK-zejF273FP6-25" value="" style="rounded=0;orthogonalLoop=1;jettySize=auto;html=1;endArrow=oval;endFill=0;sketch=0;sourcePerimeterSpacing=0;targetPerimeterSpacing=0;endSize=10;exitX=0;exitY=0;exitDx=40;exitDy=130;exitPerimeter=0;" edge="1" parent="1" source="LJ4RP3-PK-zejF273FP6-20">
          <mxGeometry relative="1" as="geometry">
            <mxPoint x="400" y="355" as="sourcePoint" />
            <mxPoint x="430" y="300" as="targetPoint" />
          </mxGeometry>
        </mxCell>
        <mxCell id="LJ4RP3-PK-zejF273FP6-26" value="" style="ellipse;whiteSpace=wrap;html=1;align=center;aspect=fixed;fillColor=none;strokeColor=none;resizable=0;perimeter=centerPerimeter;rotatable=0;allowArrows=0;points=[];outlineConnect=1;" vertex="1" parent="1">
          <mxGeometry x="415" y="350" width="10" height="10" as="geometry" />
        </mxCell>
        <mxCell id="LJ4RP3-PK-zejF273FP6-27" value="HTTP" style="text;html=1;align=center;verticalAlign=middle;resizable=0;points=[];autosize=1;strokeColor=none;fillColor=none;" vertex="1" parent="1">
          <mxGeometry x="190" y="130" width="50" height="30" as="geometry" />
        </mxCell>
        <mxCell id="LJ4RP3-PK-zejF273FP6-28" value="HTTP" style="text;html=1;align=center;verticalAlign=middle;resizable=0;points=[];autosize=1;strokeColor=none;fillColor=none;" vertex="1" parent="1">
          <mxGeometry x="180" y="350" width="50" height="30" as="geometry" />
        </mxCell>
        <mxCell id="LJ4RP3-PK-zejF273FP6-29" value="HTTP" style="text;html=1;align=center;verticalAlign=middle;resizable=0;points=[];autosize=1;strokeColor=none;fillColor=none;" vertex="1" parent="1">
          <mxGeometry x="415" y="310" width="50" height="30" as="geometry" />
        </mxCell>
        <mxCell id="LJ4RP3-PK-zejF273FP6-30" value="HTTP" style="text;html=1;align=center;verticalAlign=middle;resizable=0;points=[];autosize=1;strokeColor=none;fillColor=none;" vertex="1" parent="1">
          <mxGeometry x="415" y="160" width="50" height="30" as="geometry" />
        </mxCell>
        <mxCell id="LJ4RP3-PK-zejF273FP6-32" value="&lt;div&gt;Java SB Logging Service&lt;br&gt;&lt;/div&gt;" style="verticalAlign=top;align=left;spacingTop=8;spacingLeft=2;spacingRight=12;shape=cube;size=10;direction=south;fontStyle=4;html=1;whiteSpace=wrap;" vertex="1" parent="1">
          <mxGeometry x="610" y="410" width="130" height="70" as="geometry" />
        </mxCell>
        <mxCell id="LJ4RP3-PK-zejF273FP6-33" value="&lt;div&gt;Java SB Rest API&lt;/div&gt;" style="verticalAlign=top;align=left;spacingTop=8;spacingLeft=2;spacingRight=12;shape=cube;size=10;direction=south;fontStyle=4;html=1;whiteSpace=wrap;" vertex="1" parent="1">
          <mxGeometry x="610" y="280" width="130" height="70" as="geometry" />
        </mxCell>
        <mxCell id="LJ4RP3-PK-zejF273FP6-34" value="&lt;div&gt;Java SB Authentication Service&lt;/div&gt;" style="verticalAlign=top;align=left;spacingTop=8;spacingLeft=2;spacingRight=12;shape=cube;size=10;direction=south;fontStyle=4;html=1;whiteSpace=wrap;" vertex="1" parent="1">
          <mxGeometry x="620" y="135" width="130" height="70" as="geometry" />
        </mxCell>
        <mxCell id="LJ4RP3-PK-zejF273FP6-35" value="Java SB Email Service" style="verticalAlign=top;align=left;spacingTop=8;spacingLeft=2;spacingRight=12;shape=cube;size=10;direction=south;fontStyle=4;html=1;whiteSpace=wrap;" vertex="1" parent="1">
          <mxGeometry x="620" y="20" width="130" height="70" as="geometry" />
        </mxCell>
        <mxCell id="LJ4RP3-PK-zejF273FP6-36" value="" style="rounded=0;orthogonalLoop=1;jettySize=auto;html=1;endArrow=halfCircle;endFill=0;endSize=6;strokeWidth=1;sketch=0;exitX=0;exitY=0;exitDx=30;exitDy=0;exitPerimeter=0;" edge="1" target="LJ4RP3-PK-zejF273FP6-38" parent="1" source="LJ4RP3-PK-zejF273FP6-20">
          <mxGeometry relative="1" as="geometry">
            <mxPoint x="615" y="245" as="sourcePoint" />
          </mxGeometry>
        </mxCell>
        <mxCell id="LJ4RP3-PK-zejF273FP6-39" value="" style="rounded=0;orthogonalLoop=1;jettySize=auto;html=1;endArrow=oval;endFill=0;sketch=0;sourcePerimeterSpacing=0;targetPerimeterSpacing=0;endSize=10;exitX=0;exitY=0;exitDx=40;exitDy=130;exitPerimeter=0;" edge="1" parent="1" source="LJ4RP3-PK-zejF273FP6-34" target="LJ4RP3-PK-zejF273FP6-38">
          <mxGeometry relative="1" as="geometry">
            <mxPoint x="575" y="245" as="sourcePoint" />
            <mxPoint x="595" y="220" as="targetPoint" />
          </mxGeometry>
        </mxCell>
        <mxCell id="LJ4RP3-PK-zejF273FP6-38" value="" style="ellipse;whiteSpace=wrap;html=1;align=center;aspect=fixed;fillColor=none;strokeColor=none;resizable=0;perimeter=centerPerimeter;rotatable=0;allowArrows=0;points=[];outlineConnect=1;" vertex="1" parent="1">
          <mxGeometry x="590" y="170" width="10" height="10" as="geometry" />
        </mxCell>
        <mxCell id="LJ4RP3-PK-zejF273FP6-40" value="REST" style="text;html=1;align=center;verticalAlign=middle;resizable=0;points=[];autosize=1;strokeColor=none;fillColor=none;" vertex="1" parent="1">
          <mxGeometry x="550" y="140" width="60" height="30" as="geometry" />
        </mxCell>
        <mxCell id="LJ4RP3-PK-zejF273FP6-43" value="" style="ellipse;whiteSpace=wrap;html=1;align=center;aspect=fixed;fillColor=none;strokeColor=none;resizable=0;perimeter=centerPerimeter;rotatable=0;allowArrows=0;points=[];outlineConnect=1;" vertex="1" parent="1">
          <mxGeometry x="590" y="320" width="10" height="10" as="geometry" />
        </mxCell>
        <mxCell id="LJ4RP3-PK-zejF273FP6-45" value="" style="rounded=0;orthogonalLoop=1;jettySize=auto;html=1;endArrow=halfCircle;endFill=0;endSize=6;strokeWidth=1;sketch=0;" edge="1" parent="1">
          <mxGeometry relative="1" as="geometry">
            <mxPoint x="575" y="240" as="sourcePoint" />
            <mxPoint x="590" y="320" as="targetPoint" />
          </mxGeometry>
        </mxCell>
        <mxCell id="LJ4RP3-PK-zejF273FP6-46" value="" style="rounded=0;orthogonalLoop=1;jettySize=auto;html=1;endArrow=oval;endFill=0;sketch=0;sourcePerimeterSpacing=0;targetPerimeterSpacing=0;endSize=10;exitX=0;exitY=0;exitDx=40;exitDy=130;exitPerimeter=0;" edge="1" parent="1" source="LJ4RP3-PK-zejF273FP6-33">
          <mxGeometry relative="1" as="geometry">
            <mxPoint x="535" y="365" as="sourcePoint" />
            <mxPoint x="590" y="320" as="targetPoint" />
          </mxGeometry>
        </mxCell>
        <mxCell id="LJ4RP3-PK-zejF273FP6-47" value="" style="ellipse;whiteSpace=wrap;html=1;align=center;aspect=fixed;fillColor=none;strokeColor=none;resizable=0;perimeter=centerPerimeter;rotatable=0;allowArrows=0;points=[];outlineConnect=1;" vertex="1" parent="1">
          <mxGeometry x="550" y="360" width="10" height="10" as="geometry" />
        </mxCell>
        <mxCell id="LJ4RP3-PK-zejF273FP6-48" value="" style="rounded=0;orthogonalLoop=1;jettySize=auto;html=1;endArrow=halfCircle;endFill=0;endSize=6;strokeWidth=1;sketch=0;exitX=0.029;exitY=0.538;exitDx=0;exitDy=0;exitPerimeter=0;" edge="1" parent="1" source="LJ4RP3-PK-zejF273FP6-34">
          <mxGeometry relative="1" as="geometry">
            <mxPoint x="620" y="105" as="sourcePoint" />
            <mxPoint x="680" y="110" as="targetPoint" />
          </mxGeometry>
        </mxCell>
        <mxCell id="LJ4RP3-PK-zejF273FP6-49" value="" style="rounded=0;orthogonalLoop=1;jettySize=auto;html=1;endArrow=oval;endFill=0;sketch=0;sourcePerimeterSpacing=0;targetPerimeterSpacing=0;endSize=10;exitX=0;exitY=0;exitDx=70;exitDy=70;exitPerimeter=0;" edge="1" parent="1" source="LJ4RP3-PK-zejF273FP6-35">
          <mxGeometry relative="1" as="geometry">
            <mxPoint x="580" y="105" as="sourcePoint" />
            <mxPoint x="680" y="110" as="targetPoint" />
          </mxGeometry>
        </mxCell>
        <mxCell id="LJ4RP3-PK-zejF273FP6-50" value="" style="ellipse;whiteSpace=wrap;html=1;align=center;aspect=fixed;fillColor=none;strokeColor=none;resizable=0;perimeter=centerPerimeter;rotatable=0;allowArrows=0;points=[];outlineConnect=1;" vertex="1" parent="1">
          <mxGeometry x="595" y="100" width="10" height="10" as="geometry" />
        </mxCell>
        <mxCell id="LJ4RP3-PK-zejF273FP6-51" value="&lt;div&gt;RabbitMq&lt;/div&gt;" style="text;html=1;align=center;verticalAlign=middle;resizable=0;points=[];autosize=1;strokeColor=none;fillColor=none;" vertex="1" parent="1">
          <mxGeometry x="685" y="98" width="70" height="30" as="geometry" />
        </mxCell>
        <mxCell id="LJ4RP3-PK-zejF273FP6-52" value="" style="rounded=0;orthogonalLoop=1;jettySize=auto;html=1;endArrow=halfCircle;endFill=0;endSize=6;strokeWidth=1;sketch=0;exitX=0;exitY=0;exitDx=0;exitDy=60;exitPerimeter=0;entryX=0;entryY=0.5;entryDx=0;entryDy=0;entryPerimeter=0;" edge="1" target="LJ4RP3-PK-zejF273FP6-54" parent="1" source="LJ4RP3-PK-zejF273FP6-33">
          <mxGeometry relative="1" as="geometry">
            <mxPoint x="705" y="250" as="sourcePoint" />
          </mxGeometry>
        </mxCell>
        <mxCell id="LJ4RP3-PK-zejF273FP6-53" value="" style="rounded=0;orthogonalLoop=1;jettySize=auto;html=1;endArrow=oval;endFill=0;sketch=0;sourcePerimeterSpacing=0;targetPerimeterSpacing=0;endSize=10;exitX=0;exitY=0;exitDx=70;exitDy=70;exitPerimeter=0;" edge="1" target="LJ4RP3-PK-zejF273FP6-54" parent="1" source="LJ4RP3-PK-zejF273FP6-34">
          <mxGeometry relative="1" as="geometry">
            <mxPoint x="665" y="250" as="sourcePoint" />
          </mxGeometry>
        </mxCell>
        <mxCell id="LJ4RP3-PK-zejF273FP6-54" value="" style="ellipse;whiteSpace=wrap;html=1;align=center;aspect=fixed;fillColor=none;strokeColor=none;resizable=0;perimeter=centerPerimeter;rotatable=0;allowArrows=0;points=[];outlineConnect=1;" vertex="1" parent="1">
          <mxGeometry x="675" y="245" width="10" height="10" as="geometry" />
        </mxCell>
        <mxCell id="LJ4RP3-PK-zejF273FP6-55" value="REST" style="text;html=1;align=center;verticalAlign=middle;resizable=0;points=[];autosize=1;strokeColor=none;fillColor=none;" vertex="1" parent="1">
          <mxGeometry x="685" y="235" width="60" height="30" as="geometry" />
        </mxCell>
        <mxCell id="LJ4RP3-PK-zejF273FP6-56" value="REST" style="text;html=1;align=center;verticalAlign=middle;resizable=0;points=[];autosize=1;strokeColor=none;fillColor=none;" vertex="1" parent="1">
          <mxGeometry x="540" y="330" width="60" height="30" as="geometry" />
        </mxCell>
        <mxCell id="LJ4RP3-PK-zejF273FP6-57" value="" style="rounded=0;orthogonalLoop=1;jettySize=auto;html=1;endArrow=halfCircle;endFill=0;endSize=6;strokeWidth=1;sketch=0;exitX=0;exitY=0;exitDx=0;exitDy=60;exitPerimeter=0;entryX=1;entryY=1.2;entryDx=0;entryDy=0;entryPerimeter=0;" edge="1" target="LJ4RP3-PK-zejF273FP6-59" parent="1" source="LJ4RP3-PK-zejF273FP6-32">
          <mxGeometry relative="1" as="geometry">
            <mxPoint x="715" y="375" as="sourcePoint" />
            <mxPoint x="680" y="380" as="targetPoint" />
          </mxGeometry>
        </mxCell>
        <mxCell id="LJ4RP3-PK-zejF273FP6-58" value="" style="rounded=0;orthogonalLoop=1;jettySize=auto;html=1;endArrow=oval;endFill=0;sketch=0;sourcePerimeterSpacing=0;targetPerimeterSpacing=0;endSize=10;exitX=0;exitY=0;exitDx=70;exitDy=70;exitPerimeter=0;" edge="1" target="LJ4RP3-PK-zejF273FP6-59" parent="1" source="LJ4RP3-PK-zejF273FP6-33">
          <mxGeometry relative="1" as="geometry">
            <mxPoint x="675" y="375" as="sourcePoint" />
          </mxGeometry>
        </mxCell>
        <mxCell id="LJ4RP3-PK-zejF273FP6-59" value="" style="ellipse;whiteSpace=wrap;html=1;align=center;aspect=fixed;fillColor=none;strokeColor=none;resizable=0;perimeter=centerPerimeter;rotatable=0;allowArrows=0;points=[];outlineConnect=1;" vertex="1" parent="1">
          <mxGeometry x="675" y="380" width="10" height="10" as="geometry" />
        </mxCell>
        <mxCell id="LJ4RP3-PK-zejF273FP6-60" value="Kafka" style="text;html=1;align=center;verticalAlign=middle;resizable=0;points=[];autosize=1;strokeColor=none;fillColor=none;" vertex="1" parent="1">
          <mxGeometry x="690" y="368" width="50" height="30" as="geometry" />
        </mxCell>
        <mxCell id="LJ4RP3-PK-zejF273FP6-62" value="SMTP Server" style="verticalAlign=top;align=left;spacingTop=8;spacingLeft=2;spacingRight=12;shape=cube;size=10;direction=south;fontStyle=4;html=1;whiteSpace=wrap;" vertex="1" parent="1">
          <mxGeometry x="820" y="20" width="130" height="70" as="geometry" />
        </mxCell>
        <mxCell id="LJ4RP3-PK-zejF273FP6-63" value="" style="rounded=0;orthogonalLoop=1;jettySize=auto;html=1;endArrow=halfCircle;endFill=0;endSize=6;strokeWidth=1;sketch=0;exitX=0;exitY=0;exitDx=30;exitDy=0;exitPerimeter=0;" edge="1" target="LJ4RP3-PK-zejF273FP6-65" parent="1" source="LJ4RP3-PK-zejF273FP6-35">
          <mxGeometry relative="1" as="geometry">
            <mxPoint x="780" y="100" as="sourcePoint" />
          </mxGeometry>
        </mxCell>
        <mxCell id="LJ4RP3-PK-zejF273FP6-64" value="" style="rounded=0;orthogonalLoop=1;jettySize=auto;html=1;endArrow=oval;endFill=0;sketch=0;sourcePerimeterSpacing=0;targetPerimeterSpacing=0;endSize=10;exitX=0;exitY=0;exitDx=40;exitDy=130;exitPerimeter=0;" edge="1" target="LJ4RP3-PK-zejF273FP6-65" parent="1" source="LJ4RP3-PK-zejF273FP6-62">
          <mxGeometry relative="1" as="geometry">
            <mxPoint x="760" y="55" as="sourcePoint" />
          </mxGeometry>
        </mxCell>
        <mxCell id="LJ4RP3-PK-zejF273FP6-65" value="" style="ellipse;whiteSpace=wrap;html=1;align=center;aspect=fixed;fillColor=none;strokeColor=none;resizable=0;perimeter=centerPerimeter;rotatable=0;allowArrows=0;points=[];outlineConnect=1;" vertex="1" parent="1">
          <mxGeometry x="780" y="50" width="10" height="10" as="geometry" />
        </mxCell>
        <mxCell id="LJ4RP3-PK-zejF273FP6-66" value="SMTP" style="text;html=1;align=center;verticalAlign=middle;resizable=0;points=[];autosize=1;strokeColor=none;fillColor=none;" vertex="1" parent="1">
          <mxGeometry x="755" y="68" width="60" height="30" as="geometry" />
        </mxCell>
        <mxCell id="LJ4RP3-PK-zejF273FP6-68" value="OpenFaaS" style="verticalAlign=top;align=left;spacingTop=8;spacingLeft=2;spacingRight=12;shape=cube;size=10;direction=south;fontStyle=4;html=1;whiteSpace=wrap;" vertex="1" parent="1">
          <mxGeometry x="815" y="410" width="130" height="70" as="geometry" />
        </mxCell>
        <mxCell id="LJ4RP3-PK-zejF273FP6-69" value="" style="rounded=0;orthogonalLoop=1;jettySize=auto;html=1;endArrow=halfCircle;endFill=0;endSize=6;strokeWidth=1;sketch=0;exitX=0;exitY=0;exitDx=30;exitDy=0;exitPerimeter=0;" edge="1" parent="1" source="LJ4RP3-PK-zejF273FP6-33">
          <mxGeometry relative="1" as="geometry">
            <mxPoint x="805" y="395" as="sourcePoint" />
            <mxPoint x="780" y="360" as="targetPoint" />
          </mxGeometry>
        </mxCell>
        <mxCell id="LJ4RP3-PK-zejF273FP6-70" value="" style="rounded=0;orthogonalLoop=1;jettySize=auto;html=1;endArrow=oval;endFill=0;sketch=0;sourcePerimeterSpacing=0;targetPerimeterSpacing=0;endSize=10;exitX=0;exitY=0;exitDx=40;exitDy=130;exitPerimeter=0;" edge="1" parent="1" source="LJ4RP3-PK-zejF273FP6-68">
          <mxGeometry relative="1" as="geometry">
            <mxPoint x="765" y="395" as="sourcePoint" />
            <mxPoint x="780" y="360" as="targetPoint" />
          </mxGeometry>
        </mxCell>
        <mxCell id="LJ4RP3-PK-zejF273FP6-71" value="" style="ellipse;whiteSpace=wrap;html=1;align=center;aspect=fixed;fillColor=none;strokeColor=none;resizable=0;perimeter=centerPerimeter;rotatable=0;allowArrows=0;points=[];outlineConnect=1;" vertex="1" parent="1">
          <mxGeometry x="780" y="390" width="10" height="10" as="geometry" />
        </mxCell>
        <mxCell id="LJ4RP3-PK-zejF273FP6-72" value="REST" style="text;html=1;align=center;verticalAlign=middle;resizable=0;points=[];autosize=1;strokeColor=none;fillColor=none;" vertex="1" parent="1">
          <mxGeometry x="790" y="360" width="60" height="30" as="geometry" />
        </mxCell>
        <mxCell id="LJ4RP3-PK-zejF273FP6-74" value="&lt;div&gt;Postgresql DB&lt;br&gt;&lt;/div&gt;" style="verticalAlign=top;align=left;spacingTop=8;spacingLeft=2;spacingRight=12;shape=cube;size=10;direction=south;fontStyle=4;html=1;whiteSpace=wrap;" vertex="1" parent="1">
          <mxGeometry x="820" y="205" width="130" height="70" as="geometry" />
        </mxCell>
        <mxCell id="LJ4RP3-PK-zejF273FP6-75" value="" style="rounded=0;orthogonalLoop=1;jettySize=auto;html=1;endArrow=halfCircle;endFill=0;endSize=6;strokeWidth=1;sketch=0;exitX=0;exitY=0;exitDx=30;exitDy=0;exitPerimeter=0;" edge="1" target="LJ4RP3-PK-zejF273FP6-77" parent="1" source="LJ4RP3-PK-zejF273FP6-34">
          <mxGeometry relative="1" as="geometry">
            <mxPoint x="805" y="200" as="sourcePoint" />
          </mxGeometry>
        </mxCell>
        <mxCell id="LJ4RP3-PK-zejF273FP6-76" value="" style="rounded=0;orthogonalLoop=1;jettySize=auto;html=1;endArrow=oval;endFill=0;sketch=0;sourcePerimeterSpacing=0;targetPerimeterSpacing=0;endSize=10;exitX=0;exitY=0;exitDx=40;exitDy=130;exitPerimeter=0;" edge="1" target="LJ4RP3-PK-zejF273FP6-77" parent="1" source="LJ4RP3-PK-zejF273FP6-74">
          <mxGeometry relative="1" as="geometry">
            <mxPoint x="765" y="200" as="sourcePoint" />
          </mxGeometry>
        </mxCell>
        <mxCell id="LJ4RP3-PK-zejF273FP6-77" value="" style="ellipse;whiteSpace=wrap;html=1;align=center;aspect=fixed;fillColor=none;strokeColor=none;resizable=0;perimeter=centerPerimeter;rotatable=0;allowArrows=0;points=[];outlineConnect=1;" vertex="1" parent="1">
          <mxGeometry x="780" y="195" width="10" height="10" as="geometry" />
        </mxCell>
        <mxCell id="LJ4RP3-PK-zejF273FP6-78" value="" style="rounded=0;orthogonalLoop=1;jettySize=auto;html=1;endArrow=halfCircle;endFill=0;endSize=6;strokeWidth=1;sketch=0;exitX=0;exitY=0;exitDx=30;exitDy=0;exitPerimeter=0;" edge="1" parent="1" source="LJ4RP3-PK-zejF273FP6-33">
          <mxGeometry relative="1" as="geometry">
            <mxPoint x="805" y="295" as="sourcePoint" />
            <mxPoint x="790" y="280" as="targetPoint" />
          </mxGeometry>
        </mxCell>
        <mxCell id="LJ4RP3-PK-zejF273FP6-79" value="" style="rounded=0;orthogonalLoop=1;jettySize=auto;html=1;endArrow=oval;endFill=0;sketch=0;sourcePerimeterSpacing=0;targetPerimeterSpacing=0;endSize=10;exitX=0;exitY=0;exitDx=40;exitDy=130;exitPerimeter=0;" edge="1" parent="1" source="LJ4RP3-PK-zejF273FP6-74">
          <mxGeometry relative="1" as="geometry">
            <mxPoint x="765" y="295" as="sourcePoint" />
            <mxPoint x="790" y="280" as="targetPoint" />
          </mxGeometry>
        </mxCell>
        <mxCell id="LJ4RP3-PK-zejF273FP6-80" value="" style="ellipse;whiteSpace=wrap;html=1;align=center;aspect=fixed;fillColor=none;strokeColor=none;resizable=0;perimeter=centerPerimeter;rotatable=0;allowArrows=0;points=[];outlineConnect=1;" vertex="1" parent="1">
          <mxGeometry x="780" y="290" width="10" height="10" as="geometry" />
        </mxCell>
        <mxCell id="LJ4RP3-PK-zejF273FP6-81" value="SQL" style="text;html=1;align=center;verticalAlign=middle;resizable=0;points=[];autosize=1;strokeColor=none;fillColor=none;" vertex="1" parent="1">
          <mxGeometry x="780" y="290" width="50" height="30" as="geometry" />
        </mxCell>
        <mxCell id="LJ4RP3-PK-zejF273FP6-82" value="SQL" style="text;html=1;align=center;verticalAlign=middle;resizable=0;points=[];autosize=1;strokeColor=none;fillColor=none;" vertex="1" parent="1">
          <mxGeometry x="790" y="165" width="50" height="30" as="geometry" />
        </mxCell>
        <mxCell id="LJ4RP3-PK-zejF273FP6-83" value="Docker" style="shape=umlFrame;whiteSpace=wrap;html=1;pointerEvents=0;" vertex="1" parent="1">
          <mxGeometry x="250" width="730" height="520" as="geometry" />
        </mxCell>
      </root>
    </mxGraphModel>
  </diagram>
</mxfile>
